<svg width="50" height="36" viewBox="0 0 50 36" fill="none" xmlns="http://www.w3.org/2000/svg">
<path d="M44.0232 32.6091C44.0232 31.4098 43.0488 30.4332 41.8473 30.4332C40.6492 30.4332 39.6737 31.4098 39.6737 32.6091C39.6737 33.8083 40.648 34.7816 41.8473 34.7816C43.0477 34.7816 44.0232 33.8083 44.0232 32.6091ZM45.1089 32.6091C45.1089 34.4068 43.6462 35.8695 41.8484 35.8695C40.0517 35.8695 38.5879 34.408 38.5879 32.6091C38.5879 30.8113 40.0528 29.3464 41.8484 29.3464C43.6473 29.3464 45.1089 30.8113 45.1089 32.6091ZM20.1087 32.6091C20.1087 31.4098 19.1343 30.4332 17.935 30.4332C16.7369 30.4332 15.7614 31.4098 15.7614 32.6091C15.7614 33.8083 16.7358 34.7816 17.935 34.7816C19.1343 34.7816 20.1087 33.8083 20.1087 32.6091ZM21.1966 32.6091C21.1966 34.4068 19.735 35.8695 17.9361 35.8695C16.1372 35.8695 14.6756 34.408 14.6756 32.6091C14.6756 30.8113 16.1383 29.3464 17.9361 29.3464C19.735 29.3464 21.1966 30.8113 21.1966 32.6091ZM49.9797 5.0351L44.0022 26.7737C43.9383 27.0085 43.7233 27.1739 43.4775 27.1739H16.3048C16.07 27.1739 15.8639 27.0251 15.7889 26.8024L7.2178 1.08683H0.542553C0.243842 1.08683 0.000244141 0.842125 0.000244141 0.54121C0.000244141 0.243602 0.243842 -0.00109863 0.542553 -0.00109863H7.6091C7.84168 -0.00109863 8.05 0.147706 8.12275 0.370361L16.6961 26.0859H43.0631L48.743 5.43522H13.0432C12.7445 5.43522 12.4998 5.19052 12.4998 4.8896C12.4998 4.59199 12.7434 4.34729 13.0432 4.34729H49.4562C49.627 4.34729 49.7857 4.42665 49.8882 4.56003C49.9896 4.69671 50.026 4.87086 49.9797 5.0362V5.0351Z" fill="#333333"/>
</svg>
